<?xml version="1.0" encoding="UTF-8"?>
<svg width="70px" height="70px" viewBox="0 0 70 70" version="1.1" xmlns="http://www.w3.org/2000/svg" xmlns:xlink="http://www.w3.org/1999/xlink">
    <!-- Generator: Sketch 59.1 (86144) - https://sketch.com -->
    <title>标题栏/logo</title>
    <desc>Created with Sketch.</desc>
    <defs>
        <circle id="path-1" cx="35" cy="35" r="35"></circle>
    </defs>
    <g id="天擎客户端V10切图" stroke="none" stroke-width="1" fill="none" fill-rule="evenodd">
        <g id="标题栏/logo">
            <mask id="mask-2" fill="white">
                <use xlink:href="#path-1"></use>
            </mask>
            <circle stroke="#FFFFFF" stroke-width="6" cx="35" cy="35" r="32"></circle>
            <path d="M24.9219598,20.2522329 C20.035652,22.9749398 16.8021648,22.2945698 15,25.4295166 C15.2194539,26.5393736 15.8201755,27.8431631 16.8021648,29.3408851 C16.5460395,32.09897 17.6169305,34.6688234 20.014838,37.0504453 L19.3571944,40.1911404 C20.2369507,41.5798588 21.1711746,42.9105669 22.1598662,44.1832645 C23.6429036,46.092311 24.5400698,43.2912346 27.4960911,43.0318647 C30.4521124,42.7724949 33.2524479,43.7603014 34.1189174,44.1832645 C34.985387,44.6062277 41.4684219,45.426453 41.4684219,38.6889348 C41.9678733,41.2825056 41.1341263,44.390945 38.9671809,48.0142529 C40.0834579,50.2077311 40.6879048,51.895592 40.7805216,53.0778355 C40.9194468,54.8512008 40.6048723,60.8172136 44.0698888,66 C53.5382629,62.5395743 59.3742622,59.0733597 61.5778868,55.6013559 C65.1713156,49.9395937 68.7120149,41.5537586 66.0958706,35.2373047 L45.672214,19.3432487 L44.0698888,15.0380664 C41.7840062,14.7416154 39.6520861,16.1766762 37.6741284,19.3432487 C38.6995871,17.2506418 38.3143938,16.3426491 36.5185484,16.6192706 C34.722703,16.8958921 32.3722509,17.1455455 29.4671922,17.3682307 C27.5283705,17.7961513 26.0132931,18.7574854 24.9219598,20.2522329 Z" id="形状结合" fill="#FFFFFF"></path>
        </g>
    </g>
</svg>