<?xml version="1.0" encoding="UTF-8"?>
<svg width="40px" height="40px" viewBox="0 0 40 40" version="1.1" xmlns="http://www.w3.org/2000/svg" xmlns:xlink="http://www.w3.org/1999/xlink">
    <!-- Generator: Sketch 59.1 (86144) - https://sketch.com -->
    <title>图标-弹窗-问号图标</title>
    <desc>Created with Sketch.</desc>
    <g id="天擎客户端V10控件库" stroke="none" stroke-width="1" fill="none" fill-rule="evenodd">
        <g id="控件" transform="translate(-251.000000, -4751.000000)">
            <g id="图标-弹窗-问号图标" transform="translate(251.000000, 4751.000000)">
                <path d="M20,1 C9.50658975,1 1,9.50658975 1,20 C1,30.4934102 9.50658975,39 20,39 C30.4934102,39 39,30.4934102 39,20 C39,9.50658975 30.4934102,1 20,1 Z" id="矩形" stroke="#007FFA" stroke-width="2"></path>
                <path d="M21.4675129,23.7529499 L21.4675129,24.3678386 L19.0600475,24.3678386 L19.0600475,23.6709647 C19.0056412,22.0859104 19.7537162,20.7331688 21.3042949,19.6126994 C22.1203889,18.9841434 22.6508433,18.4649093 22.8956703,18.0549814 C23.1541001,17.6723821 23.2765123,17.1394839 23.2629108,16.4562708 C23.1132935,15.158166 22.3312151,14.4612991 20.9166521,14.3656493 C18.9988312,14.2699995 17.8631173,15.2333154 17.5094766,17.2556261 L15,16.4972634 C15.7208831,13.3681476 17.7542869,11.8719334 21.1002724,12.008576 C24.0926172,12.1862114 25.7247807,13.6892576 25.9968121,16.5177597 C26.0648199,18.3077779 25.0447177,19.9269686 22.9364748,21.3753803 C21.8755525,22.0585934 21.3859035,22.8511086 21.4675129,23.7529499 Z M18.774416,26.0075417 L21.7531443,26.0075417 L21.7531443,29 L18.774416,29 L18.774416,26.0075417 Z" id="？" fill="#007FFA" fill-rule="nonzero"></path>
            </g>
        </g>
    </g>
</svg>